<svg width="31" height="31" viewBox="0 0 31 31" fill="none" xmlns="http://www.w3.org/2000/svg">
<path d="M3.72727 19.7273L4.40909 19.8228L10.6409 13.591C10.5159 13.1331 10.5157 12.65 10.6404 12.192C10.7651 11.734 11.0101 11.3177 11.35 10.9864C12.4136 9.90915 14.1318 9.90915 15.1955 10.9864C15.9182 11.6955 16.15 12.7046 15.9045 13.591L19.4091 17.0955L20.0909 17.0001C20.3364 17.0001 20.5682 17.0001 20.7727 17.0955L25.6409 12.2273C25.5455 12.0228 25.5455 11.791 25.5455 11.5455C25.5455 10.8222 25.8328 10.1285 26.3443 9.61704C26.8557 9.10557 27.5494 8.81824 28.2727 8.81824C28.996 8.81824 29.6897 9.10557 30.2012 9.61704C30.7127 10.1285 31 10.8222 31 11.5455C31 12.2688 30.7127 12.9625 30.2012 13.474C29.6897 13.9854 28.996 14.2728 28.2727 14.2728C28.0273 14.2728 27.7955 14.2728 27.5909 14.1773L22.7227 19.0455C22.8182 19.2501 22.8182 19.4819 22.8182 19.7273C22.8182 20.4506 22.5308 21.1443 22.0194 21.6558C21.5079 22.1673 20.8142 22.4546 20.0909 22.4546C19.3676 22.4546 18.6739 22.1673 18.1624 21.6558C17.651 21.1443 17.3636 20.4506 17.3636 19.7273L17.4591 19.0455L13.9545 15.541C13.5182 15.6364 13.0273 15.6364 12.5909 15.541L6.35909 21.7728L6.45455 22.4546C6.45455 23.1779 6.16721 23.8716 5.65575 24.3831C5.14428 24.8945 4.45059 25.1819 3.72727 25.1819C3.00396 25.1819 2.31026 24.8945 1.7988 24.3831C1.28734 23.8716 1 23.1779 1 22.4546C1 21.7313 1.28734 21.0376 1.7988 20.5261C2.31026 20.0147 3.00396 19.7273 3.72727 19.7273Z" fill="#5D7285"/>
</svg>
