<svg width="30" height="16" viewBox="0 0 30 16" fill="none" xmlns="http://www.w3.org/2000/svg">
<path d="M22.1133 5.01167C21.3871 4.28542 20.4021 3.87741 19.375 3.87741C18.3479 3.87741 17.3629 4.28542 16.6367 5.01167C15.9104 5.73792 15.5024 6.72293 15.5024 7.75C15.5024 8.77707 15.9104 9.76208 16.6367 10.4883C16.9963 10.8479 17.4232 11.1332 17.893 11.3278C18.3629 11.5224 18.8664 11.6226 19.375 11.6226C19.8836 11.6226 20.3871 11.5224 20.857 11.3278C21.3268 11.1332 21.7537 10.8479 22.1133 10.4883C22.4729 10.1287 22.7582 9.70182 22.9528 9.23198C23.1474 8.76213 23.2476 8.25856 23.2476 7.75C23.2476 7.24144 23.1474 6.73787 22.9528 6.26802C22.7582 5.79818 22.4729 5.37127 22.1133 5.01167ZM9.04167 0V15.5H29.7083V0H9.04167ZM27.125 10.3333C26.4404 10.3333 25.7817 10.6046 25.3038 11.0954C24.8129 11.5733 24.5417 12.2321 24.5417 12.9167H14.2083C14.2083 12.2321 13.9371 11.5733 13.4463 11.0954C12.9683 10.6046 12.3096 10.3333 11.625 10.3333V5.16667C12.3096 5.16667 12.9683 4.89542 13.4463 4.40458C13.9371 3.92667 14.2083 3.26792 14.2083 2.58333H24.5417C24.5417 3.26792 24.8129 3.92667 25.3038 4.40458C25.7817 4.89542 26.4404 5.16667 27.125 5.16667V10.3333ZM6.45833 2.58333H3.875C3.16458 2.58333 2.58333 2.00208 2.58333 1.29167C2.58333 0.58125 3.16458 0 3.875 0H6.45833V2.58333ZM6.45833 9.04167H2.58333C1.87292 9.04167 1.29167 8.46042 1.29167 7.75C1.29167 7.03958 1.87292 6.45833 2.58333 6.45833H6.45833V9.04167ZM6.45833 15.5H1.29167C0.578667 15.5 0 14.9187 0 14.2083C0 13.4979 0.578667 12.9167 1.29167 12.9167H6.45833V15.5Z" fill="#2196F3"/>
</svg>
