<svg width="16" height="16" viewBox="0 0 16 16" fill="none" xmlns="http://www.w3.org/2000/svg">
<path d="M4.25 6.25025C4.25 5.71975 4.46074 5.21098 4.83586 4.83586C5.21098 4.46074 5.71975 4.25 6.25025 4.25H12.7498C13.0124 4.25 13.2725 4.30174 13.5152 4.40226C13.7579 4.50278 13.9784 4.65012 14.1641 4.83586C14.3499 5.0216 14.4972 5.24211 14.5977 5.48479C14.6983 5.72747 14.75 5.98757 14.75 6.25025V12.7498C14.75 13.0124 14.6983 13.2725 14.5977 13.5152C14.4972 13.7579 14.3499 13.9784 14.1641 14.1641C13.9784 14.3499 13.7579 14.4972 13.5152 14.5977C13.2725 14.6983 13.0124 14.75 12.7498 14.75H6.25025C5.98757 14.75 5.72747 14.6983 5.48479 14.5977C5.24211 14.4972 5.0216 14.3499 4.83586 14.1641C4.65012 13.9784 4.50278 13.7579 4.40226 13.5152C4.30174 13.2725 4.25 13.0124 4.25 12.7498V6.25025Z" stroke="#DEE2E6" stroke-width="1.58333" stroke-linecap="round" stroke-linejoin="round"/>
<path d="M2.009 11.5527C1.77875 11.4219 1.58724 11.2325 1.45393 11.0037C1.32061 10.7749 1.25025 10.5148 1.25 10.25V2.75C1.25 1.925 1.925 1.25 2.75 1.25H10.25C10.8125 1.25 11.1185 1.53875 11.375 2" stroke="#DEE2E6" stroke-width="1.58333" stroke-linecap="round" stroke-linejoin="round"/>
</svg>
