<svg width="29" height="23" viewBox="0 0 29 23" fill="none" xmlns="http://www.w3.org/2000/svg">
<path d="M26.125 7.33333C24.1875 7.33333 23.1542 9.14167 23.6708 10.5625L19.0208 15.2125C18.6333 15.0833 18.1167 15.0833 17.7292 15.2125L14.3708 11.8542C14.8875 10.4333 13.8542 8.625 11.9167 8.625C10.1083 8.625 8.94584 10.4333 9.46251 11.8542L3.52084 17.6667C2.10001 17.2792 0.291672 18.3125 0.291672 20.25C0.291672 21.6708 1.45417 22.8333 2.87501 22.8333C4.68334 22.8333 5.84584 21.025 5.32917 19.6042L11.1417 13.6625C11.5292 13.7917 12.0458 13.7917 12.4333 13.6625L15.7917 17.0208C15.4042 18.3125 16.4375 20.25 18.375 20.25C20.3125 20.25 21.3458 18.4417 20.8292 17.0208L25.4792 12.3708C26.9 12.7583 28.7083 11.725 28.7083 9.91667C28.7083 8.49583 27.5458 7.33333 26.125 7.33333ZM18.375 8.625L19.5375 5.9125L22.25 4.75L19.5375 3.5875L18.375 0.875L17.2125 3.5875L14.5 4.75L17.2125 5.9125L18.375 8.625ZM3.52084 11.2083L4.16667 8.625L6.75 7.97917L4.16667 7.33333L3.52084 4.75L2.87501 7.33333L0.291672 7.97917L2.87501 8.625L3.52084 11.2083Z" fill="#2196F3"/>
</svg>
