<svg width="25" height="28" viewBox="0 0 25 28" fill="none" xmlns="http://www.w3.org/2000/svg">
<path d="M21.5417 6.74999H18.9583C18.9583 3.13332 16.1167 0.291656 12.5 0.291656C8.88333 0.291656 6.04167 3.13332 6.04167 6.74999H3.45833C2.0375 6.74999 0.875 7.91249 0.875 9.33332V24.8333C0.875 26.2542 2.0375 27.4167 3.45833 27.4167H21.5417C22.9625 27.4167 24.125 26.2542 24.125 24.8333V9.33332C24.125 7.91249 22.9625 6.74999 21.5417 6.74999ZM12.5 2.87499C14.6958 2.87499 16.375 4.55416 16.375 6.74999H8.625C8.625 4.55416 10.3042 2.87499 12.5 2.87499ZM21.5417 24.8333H3.45833V9.33332H21.5417V24.8333ZM12.5 14.5C10.3042 14.5 8.625 12.8208 8.625 10.625H6.04167C6.04167 14.2417 8.88333 17.0833 12.5 17.0833C16.1167 17.0833 18.9583 14.2417 18.9583 10.625H16.375C16.375 12.8208 14.6958 14.5 12.5 14.5Z" fill="#2196F3"/>
</svg>

