<svg width="25" height="25" viewBox="0 0 25 25" fill="none" xmlns="http://www.w3.org/2000/svg">
<path d="M16.7031 3.14066C17.264 2.57962 18.0173 2.25291 18.8103 2.22679C19.6032 2.20068 20.3763 2.47711 20.9729 3.00004L21.1229 3.14066L21.8594 3.87712C22.4201 4.43798 22.7467 5.19106 22.7728 5.98372C22.7989 6.77638 22.5226 7.54932 22 8.14587L21.8594 8.29587L10.1802 19.9761C10.0151 20.1412 9.81505 20.2672 9.59481 20.3448L9.42606 20.3938L4.78647 21.4646C4.62391 21.5024 4.45464 21.5006 4.29292 21.4593C4.1312 21.4181 3.98177 21.3385 3.85721 21.2275C3.73264 21.1164 3.6366 20.977 3.57715 20.821C3.51771 20.6651 3.49661 20.4971 3.51564 20.3313L3.53647 20.2136L4.60627 15.573C4.65911 15.3453 4.76234 15.1325 4.90835 14.95L5.02397 14.8198L16.7031 3.14066ZM15.9667 6.82295L6.6021 16.1875L5.9396 19.0605L8.81252 18.3969L18.1771 9.03233L15.9667 6.82295ZM19.65 4.61358C19.4706 4.43423 19.232 4.32649 18.9788 4.31057C18.7257 4.29465 18.4754 4.37165 18.275 4.52712L18.1771 4.61358L17.4396 5.35004L19.65 7.55941L20.3865 6.82295C20.5658 6.64359 20.6736 6.40494 20.6895 6.15179C20.7054 5.89863 20.6284 5.64837 20.4729 5.44795L20.3865 5.35004L19.65 4.61358Z" fill="#5D7285"/>
</svg>
