<svg width="18" height="18" viewBox="0 0 18 18" fill="none" xmlns="http://www.w3.org/2000/svg">
<path d="M15.01 17.75C14.7233 17.75 14.4833 17.6533 14.29 17.46C14.0967 17.2667 14 17.0267 14 16.74V12.75C14 12.4642 14.0967 12.2246 14.29 12.0313C14.4833 11.8379 14.7233 11.7408 15.01 11.74H16.74C17.0267 11.74 17.2667 11.8367 17.46 12.03C17.6533 12.2233 17.75 12.4633 17.75 12.75V16.74C17.75 17.0267 17.6533 17.2667 17.46 17.46C17.2667 17.6533 17.0267 17.75 16.74 17.75H15.01ZM8.135 17.75C7.84833 17.75 7.60833 17.6533 7.415 17.46C7.22167 17.2667 7.125 17.0267 7.125 16.74V1.26001C7.125 0.974172 7.22167 0.734172 7.415 0.540005C7.60833 0.345839 7.84833 0.249172 8.135 0.250005H9.865C10.1517 0.250005 10.3917 0.346672 10.585 0.540005C10.7783 0.733338 10.875 0.973339 10.875 1.26001V16.74C10.875 17.0267 10.7783 17.2667 10.585 17.46C10.3917 17.6533 10.1517 17.75 9.865 17.75H8.135ZM1.26 17.75C0.973333 17.75 0.733333 17.6533 0.54 17.46C0.346667 17.2667 0.25 17.0267 0.25 16.74V7.28125C0.25 6.98292 0.346667 6.73834 0.54 6.5475C0.733333 6.35667 0.973333 6.26084 1.26 6.26H2.99C3.27583 6.26 3.51583 6.35667 3.71 6.55C3.90417 6.74334 4.00083 6.98334 4 7.27V16.7288C4 17.0271 3.90333 17.2717 3.71 17.4625C3.51667 17.6533 3.27667 17.7492 2.99 17.75H1.26Z" fill="#463F6E"/>
</svg>

