<svg width="26" height="21" viewBox="0 0 26 21" fill="none" xmlns="http://www.w3.org/2000/svg">
<path d="M7 9.5C7 8.83696 7.26339 8.20107 7.73223 7.73223C8.20107 7.26339 8.83696 7 9.5 7H22C22.663 7 23.2989 7.26339 23.7678 7.73223C24.2366 8.20107 24.5 8.83696 24.5 9.5V17C24.5 17.663 24.2366 18.2989 23.7678 18.7678C23.2989 19.2366 22.663 19.5 22 19.5H9.5C8.83696 19.5 8.20107 19.2366 7.73223 18.7678C7.26339 18.2989 7 17.663 7 17V9.5Z" stroke="#3E5147" stroke-width="2.5" stroke-linecap="round" stroke-linejoin="round"/>
<path d="M19.5 7V4.5C19.5 3.83696 19.2366 3.20107 18.7678 2.73223C18.2989 2.26339 17.663 2 17 2H4.5C3.83696 2 3.20107 2.26339 2.73223 2.73223C2.26339 3.20107 2 3.83696 2 4.5V12C2 12.663 2.26339 13.2989 2.73223 13.7678C3.20107 14.2366 3.83696 14.5 4.5 14.5H7M13.25 13.25C13.25 13.913 13.5134 14.5489 13.9822 15.0178C14.4511 15.4866 15.087 15.75 15.75 15.75C16.413 15.75 17.0489 15.4866 17.5178 15.0178C17.9866 14.5489 18.25 13.913 18.25 13.25C18.25 12.587 17.9866 11.9511 17.5178 11.4822C17.0489 11.0134 16.413 10.75 15.75 10.75C15.087 10.75 14.4511 11.0134 13.9822 11.4822C13.5134 11.9511 13.25 12.587 13.25 13.25Z" stroke="#3E5147" stroke-width="2.5" stroke-linecap="round" stroke-linejoin="round"/>
</svg>

