<svg width="18" height="20" viewBox="0 0 18 20" fill="none" xmlns="http://www.w3.org/2000/svg">
<path fill-rule="evenodd" clip-rule="evenodd" d="M3.85002 7.00002C3.85002 5.68114 4.29061 4.39003 5.13533 3.43973C5.96613 2.50508 7.23068 1.85002 9.00003 1.85002C10.7694 1.85002 12.0339 2.50508 12.8647 3.43973C13.7094 4.39003 14.15 5.68113 14.15 7.00002C14.15 8.25962 14.7766 9.19823 15.2542 9.91375L15.2928 9.97152C15.8111 10.7489 16.15 11.2938 16.15 12C16.15 12.9743 15.4563 13.7578 14.0165 14.3363C12.599 14.9058 10.7185 15.15 9.00003 15.15C7.28156 15.15 5.40102 14.9058 3.98359 14.3363C2.54375 13.7578 1.85002 12.9743 1.85002 12C1.85002 11.3066 2.17424 10.8297 2.69813 10.0755C3.20176 9.35041 3.85002 8.40787 3.85002 7.00002ZM9.00003 0.150024C6.76938 0.150024 5.03393 0.994971 3.86473 2.31031C2.70944 3.61001 2.15002 5.31891 2.15002 7.00002C2.15002 7.83355 1.79829 8.39102 1.30191 9.10563L1.23218 9.20569C0.762584 9.87848 0.150024 10.7561 0.150024 12C0.150024 14.0258 1.67852 15.2422 3.3498 15.9137C5.04348 16.5942 7.16294 16.85 9.00003 16.85C10.8371 16.85 12.9566 16.5942 14.6503 15.9137C16.3215 15.2422 17.85 14.0258 17.85 12C17.85 10.7404 17.2235 9.80182 16.7458 9.0863L16.7073 9.02853C16.189 8.25111 15.85 7.70624 15.85 7.00002C15.85 5.31891 15.2906 3.61002 14.1353 2.31032C12.9661 0.994971 11.2307 0.150024 9.00003 0.150024ZM6.52853 17.2928C6.91605 17.0344 7.43856 17.1363 7.70106 17.5194L7.70739 17.5279C7.71647 17.5398 7.73416 17.5621 7.76032 17.5916C7.81324 17.6511 7.89698 17.7352 8.01002 17.82C8.23356 17.9877 8.55903 18.15 9.00002 18.15C9.44102 18.15 9.76649 17.9877 9.99002 17.82C10.1031 17.7352 10.1868 17.6511 10.2397 17.5916C10.2659 17.5621 10.2836 17.5398 10.2927 17.5279L10.299 17.5194C10.5615 17.1363 11.084 17.0344 11.4715 17.2928C11.8621 17.5532 11.9677 18.0809 11.7073 18.4715L11 18C11.7073 18.4715 11.7071 18.4718 11.7068 18.4722L11.7064 18.4728L11.7054 18.4743L11.7033 18.4774L11.6983 18.4848L11.6849 18.5039C11.6746 18.5184 11.6612 18.5367 11.6449 18.5581C11.6123 18.6009 11.5675 18.6567 11.5103 18.721C11.3966 18.849 11.2303 19.0148 11.01 19.18C10.5669 19.5124 9.89237 19.85 9.00002 19.85C8.10768 19.85 7.43315 19.5124 6.99002 19.18C6.76974 19.0148 6.60348 18.849 6.48973 18.721C6.43256 18.6567 6.38775 18.6009 6.35516 18.5581C6.33884 18.5367 6.3255 18.5184 6.31512 18.5039L6.30176 18.4848L6.29673 18.4774L6.29462 18.4743L6.29367 18.4728L6.29322 18.4722C6.293 18.4718 6.29278 18.4715 7.00002 18L6.29278 18.4715C6.03238 18.0809 6.13793 17.5532 6.52853 17.2928Z" fill="#5D7285"/>
</svg>

