<svg width="31" height="21" viewBox="0 0 31 21" fill="none" xmlns="http://www.w3.org/2000/svg">
<path d="M9.04167 0.166656C6.2 0.166656 3.875 2.49166 3.875 5.33332C3.875 8.17499 6.2 10.5 9.04167 10.5C11.8833 10.5 14.2083 8.17499 14.2083 5.33332C14.2083 2.49166 11.8833 0.166656 9.04167 0.166656ZM9.04167 7.91666C7.62083 7.91666 6.45833 6.75416 6.45833 5.33332C6.45833 3.91249 7.62083 2.74999 9.04167 2.74999C10.4625 2.74999 11.625 3.91249 11.625 5.33332C11.625 6.75416 10.4625 7.91666 9.04167 7.91666ZM9.04167 13.0833C4.00417 13.0833 0 15.4083 0 18.25V20.8333H14.2083V18.25H2.58333C2.58333 17.475 4.90833 15.6667 9.04167 15.6667C11.3667 15.6667 13.175 16.3125 14.2083 16.9583V14.1167C12.7875 13.4708 10.9792 13.0833 9.04167 13.0833ZM28.4167 0.166656H19.375C17.9542 0.166656 16.7917 1.32916 16.7917 2.74999V18.25C16.7917 19.6708 17.9542 20.8333 19.375 20.8333H28.4167C29.8375 20.8333 31 19.6708 31 18.25V2.74999C31 1.32916 29.8375 0.166656 28.4167 0.166656ZM20.6667 18.25H19.375V2.74999H20.6667V18.25ZM28.4167 18.25H23.25V2.74999H28.4167V18.25Z" fill="#2196F3"/>
</svg>

