<svg width="16" height="15" viewBox="0 0 16 15" fill="none" xmlns="http://www.w3.org/2000/svg">
<path d="M0.90689 13.7333L0.882931 13.7945L0.929538 13.8407C1.19984 14.1091 1.48459 14.363 1.78251 14.6011L1.89618 14.692L1.94025 14.5533C2.74482 12.0212 5.27222 10.1078 8.37122 10.1078C11.4702 10.1078 13.9976 12.0212 14.8022 14.5533L14.8463 14.692L14.9599 14.6011C15.2579 14.363 15.5426 14.1092 15.8129 13.8407L15.8595 13.7945L15.8356 13.7333C14.7207 10.8875 11.7969 8.86163 8.37122 8.86163C4.94551 8.86163 2.02178 10.8875 0.90689 13.7333ZM8.37122 7.4924C10.1598 7.4924 11.6097 6.04249 11.6097 4.25394C11.6097 2.46539 10.1598 1.01548 8.37122 1.01548C6.58267 1.01548 5.13276 2.46539 5.13276 4.25394C5.13276 6.04249 6.58267 7.4924 8.37122 7.4924ZM10.3635 4.25394C10.3635 5.35426 9.47154 6.24625 8.37122 6.24625C7.2709 6.24625 6.37891 5.35426 6.37891 4.25394C6.37891 3.15362 7.2709 2.26163 8.37122 2.26163C9.47154 2.26163 10.3635 3.15362 10.3635 4.25394Z" fill="white" stroke="white" stroke-width="0.2"/>
</svg>
