<svg width="27" height="27" viewBox="0 0 27 27" fill="none" xmlns="http://www.w3.org/2000/svg">
<path d="M17.625 2H9.5C5.35786 2 2 5.35786 2 9.5V17.625C2 21.7671 5.35786 25.125 9.5 25.125H17.625C21.7671 25.125 25.125 21.7671 25.125 17.625V9.5C25.125 5.35786 21.7671 2 17.625 2Z" stroke="#2C3237" stroke-width="3"/>
<path d="M7.3125 17.3125L10.375 13.2375C10.5625 12.9866 10.8375 12.8152 11.1454 12.7573C11.4532 12.6994 11.7716 12.7593 12.0375 12.925L15.025 14.8125C15.3011 14.9883 15.6351 15.0488 15.9553 14.981C16.2755 14.9133 16.5563 14.7226 16.7375 14.45L19.8125 9.8125" stroke="#2C3237" stroke-width="3" stroke-linecap="round" stroke-linejoin="round"/>
</svg>

