<svg width="25" height="25" viewBox="0 0 25 25" fill="none" xmlns="http://www.w3.org/2000/svg">
<g clip-path="url(#clip0_25_963)">
<path fill-rule="evenodd" clip-rule="evenodd" d="M15.1666 6.69017C14.9173 6.79504 14.7199 6.99465 14.6178 7.24509C14.5157 7.49552 14.5172 7.77627 14.6221 8.02556C14.727 8.27486 14.9266 8.47228 15.177 8.5744C15.4275 8.67652 15.7082 8.67498 15.9575 8.5701L18.5217 7.49138C19.1762 7.23093 19.9067 7.23757 20.5564 7.50988C21.206 7.78219 21.7229 8.29843 21.996 8.94771C22.2692 9.59699 22.2767 10.3275 22.0171 10.9823C21.7575 11.6371 21.2514 12.164 20.6076 12.4497L16.4191 14.2117L15.7358 12.5875C15.6576 12.4016 15.526 12.2431 15.3577 12.132C15.1894 12.0209 14.9919 11.9622 14.7903 11.9634C14.5886 11.9645 14.3918 12.0254 14.2248 12.1383C14.0577 12.2512 13.9279 12.4112 13.8517 12.5979L12.3673 16.2382C12.2905 16.4249 12.2708 16.6301 12.3107 16.828C12.3506 17.0259 12.4483 17.2075 12.5915 17.3498C12.6847 17.4433 12.7961 17.517 12.9257 17.5709L16.5687 19.0564C16.7554 19.1325 16.9606 19.1516 17.1581 19.1111C17.3557 19.0707 17.5368 18.9726 17.6786 18.8292C17.8204 18.6859 17.9166 18.5037 17.9548 18.3057C17.9931 18.1077 17.9718 17.9028 17.8937 17.7169L17.21 16.0917L21.3985 14.3296C21.9799 14.095 22.5088 13.7472 22.9546 13.3063C23.4003 12.8655 23.754 12.3404 23.995 11.7616C24.2359 11.1828 24.3595 10.5619 24.3583 9.93492C24.3572 9.30798 24.2314 8.68751 23.9883 8.10962C23.7451 7.53173 23.3896 7.00793 22.9422 6.5687C22.4948 6.12947 21.9646 5.78357 21.3823 5.55111C20.8001 5.31865 20.1774 5.20427 19.5505 5.21463C18.9237 5.22499 18.3051 5.35987 17.7309 5.61144L15.1666 6.69017Z" fill="#5D7285"/>
<path fill-rule="evenodd" clip-rule="evenodd" d="M9.23449 19.5847C9.48378 19.4799 9.6812 19.2802 9.78333 19.0298C9.88545 18.7794 9.8839 18.4986 9.77903 18.2493C9.67415 18 9.47454 17.8026 9.22411 17.7005C8.97367 17.5984 8.69292 17.5999 8.44363 17.7048L5.8794 18.7835C5.22492 19.044 4.4944 19.0373 3.84477 18.765C3.19514 18.4927 2.67823 17.9765 2.40509 17.3272C2.13195 16.6779 2.12437 15.9474 2.38398 15.2926C2.64359 14.6378 3.14968 14.1109 3.79351 13.8252L7.98201 12.0632L8.66531 13.6874C8.74355 13.8733 8.87513 14.0318 9.04343 14.1429C9.21173 14.254 9.40919 14.3127 9.61084 14.3115C9.8125 14.3104 10.0093 14.2495 10.1764 14.1366C10.3434 14.0237 10.4732 13.8637 10.5494 13.677L12.0338 10.0367C12.1107 9.85004 12.1304 9.64476 12.0905 9.44688C12.0505 9.24901 11.9528 9.06743 11.8096 8.92514C11.7164 8.83159 11.605 8.75787 11.4754 8.70398L7.83242 7.21847C7.64568 7.14236 7.44056 7.12332 7.243 7.16376C7.04544 7.2042 6.86431 7.30231 6.7225 7.44568C6.58069 7.58905 6.48457 7.77125 6.4463 7.96924C6.40802 8.16723 6.42931 8.37213 6.50746 8.55803L7.19116 10.1832L3.00266 11.9453C2.42126 12.1799 1.8923 12.5277 1.44655 12.9686C1.00079 13.4094 0.647143 13.9345 0.406159 14.5133C0.165175 15.0921 0.041668 15.713 0.0428203 16.34C0.0439723 16.9669 0.16976 17.5874 0.41287 18.1653C0.655979 18.7432 1.01156 19.267 1.45893 19.7062C1.9063 20.1454 2.43653 20.4913 3.01879 20.7238C3.60105 20.9563 4.22372 21.0706 4.85058 21.0603C5.47744 21.0499 6.09599 20.915 6.67025 20.6635L9.23449 19.5847Z" fill="#5D7285"/>
</g>
<defs>
<clipPath id="clip0_25_963">
<rect width="25" height="25" fill="white"/>
</clipPath>
</defs>
</svg>
