<svg width="22" height="22" viewBox="0 0 22 22" fill="none" xmlns="http://www.w3.org/2000/svg">
<g opacity="0.7">
<path d="M19.25 19.2497L15.2689 15.2686M15.2689 15.2686C15.9499 14.5876 16.4901 13.7792 16.8586 12.8895C17.2272 11.9997 17.4169 11.0461 17.4169 10.083C17.4169 9.11998 17.2272 8.16636 16.8586 7.27662C16.4901 6.38687 15.9499 5.57843 15.2689 4.89745C14.5879 4.21647 13.7795 3.67629 12.8898 3.30774C12 2.9392 11.0464 2.74951 10.0833 2.74951C9.12029 2.74951 8.16667 2.9392 7.27692 3.30774C6.38718 3.67629 5.57874 4.21647 4.89776 4.89745C3.52245 6.27275 2.74982 8.13806 2.74982 10.083C2.74982 12.028 3.52245 13.8933 4.89776 15.2686C6.27306 16.6439 8.13837 17.4166 10.0833 17.4166C12.0283 17.4166 13.8936 16.6439 15.2689 15.2686Z" stroke="#8B99A7" stroke-width="2.29167" stroke-linecap="round" stroke-linejoin="round"/>
</g>
</svg>
