<svg width="28" height="24" viewBox="0 0 28 24" fill="none" xmlns="http://www.w3.org/2000/svg">
<path d="M23.2165 4.12349C24.0566 3.8189 24.4745 3.70982 24.704 3.67015C24.7059 3.74571 24.7049 3.80332 24.7012 3.84299C24.3725 7.30532 22.9289 15.8237 22.1866 19.7876C22.0137 20.7155 21.8806 21.1575 20.9824 20.6305C20.3931 20.2834 19.8604 19.8471 19.2881 19.4731C17.411 18.242 14.725 16.4102 14.946 16.5207C13.0987 15.3024 13.8722 14.5572 14.9035 13.5627C15.0692 13.4027 15.2435 13.2355 15.4135 13.0584C15.49 12.9791 15.8626 12.6334 16.3867 12.1447C18.0697 10.5807 21.3224 7.55607 21.4046 7.20615C21.4187 7.14949 21.4301 6.93415 21.304 6.82224C21.1765 6.7089 20.9881 6.74715 20.8535 6.77832C20.6618 6.82177 17.6046 8.8424 11.682 12.8402C10.815 13.4352 10.0292 13.7252 9.32467 13.7101L9.33175 13.7143C8.40383 13.3871 7.47875 13.1052 6.54942 12.8218C5.93357 12.6369 5.31965 12.4456 4.70775 12.2481L4.27142 12.1092C10.6847 9.31557 14.9559 7.47674 17.0965 6.58565C20.2047 5.29224 22.0492 4.54849 23.2165 4.12349ZM26.6491 1.39215C26.3476 1.15329 25.996 0.985717 25.6206 0.901987C25.3372 0.833987 25.0681 0.812737 24.8655 0.816987C24.1897 0.82832 23.4658 1.01957 22.2503 1.46015C21.0107 1.91065 19.1067 2.68132 16.0085 3.96907C13.8221 4.87857 9.47672 6.75046 2.97233 9.58474C2.4 9.81282 1.87725 10.0721 1.46358 10.3781C1.08108 10.6628 0.546999 11.1714 0.449249 11.9506C0.375582 12.5399 0.546999 13.0839 0.895499 13.5132C1.19867 13.8857 1.58683 14.1124 1.88292 14.2555C2.32208 14.468 2.91425 14.6536 3.43417 14.8165C4.24592 15.0715 5.05483 15.3307 5.86942 15.5801C8.38825 16.3507 10.4622 16.9854 12.7431 18.4899C14.4162 19.5921 16.0581 20.7424 17.734 21.8417C18.346 22.2427 18.9169 22.7031 19.5473 23.0742C20.2387 23.478 21.1142 23.8477 22.1823 23.75C23.7945 23.6012 24.6332 22.118 24.9732 20.3075C25.7112 16.355 27.1789 7.71899 27.5232 4.11215C27.5546 3.69362 27.537 3.27285 27.4707 2.8584C27.3868 2.28512 27.0942 1.763 26.6491 1.39215Z" fill="white"/>
</svg>

