<svg width="27" height="27" viewBox="0 0 27 27" fill="none" xmlns="http://www.w3.org/2000/svg">
<path d="M5.12634 8.26683H21.8733M11.4065 12.4536V18.7337M15.5932 12.4536V18.7337M6.17303 8.26683L7.21972 20.8271C7.21972 21.3823 7.44027 21.9147 7.83285 22.3073C8.22543 22.6999 8.75789 22.9204 9.31309 22.9204H17.6866C18.2418 22.9204 18.7742 22.6999 19.1668 22.3073C19.5594 21.9147 19.78 21.3823 19.78 20.8271L20.8266 8.26683M10.3598 8.26683V5.12676C10.3598 4.84917 10.4701 4.58294 10.6663 4.38665C10.8626 4.19035 11.1289 4.08008 11.4065 4.08008H15.5932C15.8708 4.08008 16.137 4.19035 16.3333 4.38665C16.5296 4.58294 16.6399 4.84917 16.6399 5.12676V8.26683" stroke="#5D7285" stroke-width="1.66667" stroke-linecap="round" stroke-linejoin="round"/>
</svg>
