<svg width="24" height="24" viewBox="0 0 24 24" fill="none" xmlns="http://www.w3.org/2000/svg">
<path d="M17.2251 21.5L14.7126 17.15C15.9376 16.25 16.7876 14.85 16.9626 13.25H22.0001C21.8968 14.9009 21.4119 16.5052 20.5833 17.9368C19.7547 19.3684 18.6051 20.5882 17.2251 21.5ZM13.2501 5.7875V0.75C18.6251 1.075 22.9251 5.375 23.2501 10.75H18.2126C18.0725 9.48199 17.5047 8.29952 16.6026 7.39745C15.7005 6.49538 14.5181 5.92754 13.2501 5.7875ZM5.75005 12.625C5.75005 13.425 5.91255 14.1875 6.22505 14.875L1.87505 17.3875C1.13019 15.9108 0.744727 14.2789 0.750054 12.625C0.750054 6.9625 5.17505 2.3375 10.7501 2V7.0375C7.93755 7.35 5.75005 9.725 5.75005 12.625ZM11.3751 23.25C7.66255 23.25 4.40005 21.375 2.50005 18.475L6.85005 15.9625C7.37049 16.6736 8.05173 17.2515 8.83815 17.6491C9.62457 18.0466 10.4939 18.2525 11.3751 18.25C12.1751 18.25 12.9376 18.0875 13.6251 17.775L16.1376 22.125C14.7001 22.85 13.0876 23.25 11.3751 23.25Z" fill="#2C3237"/>
</svg>

