<svg width="26" height="28" viewBox="0 0 26 28" fill="none" xmlns="http://www.w3.org/2000/svg">
<path d="M13 0.0561523L25.075 7.02865V20.9712L13 27.9437L0.925049 20.9712V7.02865L13 0.0561523ZM13 2.94365L4.67505 7.7499L13 12.5562L21.325 7.7499L13 2.94365ZM22.575 9.9149L14.25 14.7212V24.3337L22.575 19.5287V9.9149ZM11.75 24.3349V14.7224L3.42505 9.91365V19.5262L11.75 24.3349ZM14.25 5.2499V10.2499H11.75V5.2499H14.25ZM10.3775 16.9574L6.04755 19.4574L4.79755 17.2924L9.12755 14.7924L10.3775 16.9574ZM16.8725 14.7924L21.2025 17.2924L19.9525 19.4574L15.6225 16.9574L16.8725 14.7924Z" fill="#2C3237"/>
</svg>

