<svg width="25" height="25" viewBox="0 0 25 25" fill="none" xmlns="http://www.w3.org/2000/svg">
<path d="M17.0208 17.0208C18.0929 17.0208 18.9583 16.1554 18.9583 15.0833C18.9583 14.0112 18.0929 13.1458 17.0208 13.1458C15.9487 13.1458 15.0833 14.0112 15.0833 15.0833C15.0833 16.1554 15.9487 17.0208 17.0208 17.0208ZM6.04167 0.875H18.9583C19.6435 0.875 20.3006 1.14717 20.785 1.63164C21.2695 2.11611 21.5417 2.77319 21.5417 3.45833V6.04167C22.2268 6.04167 22.8839 6.31384 23.3684 6.79831C23.8528 7.28278 24.125 7.93986 24.125 8.625V21.5417C24.125 22.9754 22.9754 24.125 21.5417 24.125H6.04167C3.18708 24.125 0.875 21.8129 0.875 18.9583V6.04167C0.875 3.18708 3.18708 0.875 6.04167 0.875ZM18.9583 6.04167V3.45833H6.04167C4.62083 3.45833 3.45833 4.62083 3.45833 6.04167V6.73917C4.24325 6.28384 5.13425 6.04328 6.04167 6.04167H18.9583ZM3.45833 18.9583C3.45833 19.6435 3.7305 20.3006 4.21497 20.785C4.69944 21.2695 5.35652 21.5417 6.04167 21.5417H21.5417V8.625H6.04167C4.62083 8.625 3.45833 9.7875 3.45833 11.2083V18.9583Z" fill="#2196F3"/>
</svg>
