<svg width="34" height="34" viewBox="0 0 34 34" fill="none" xmlns="http://www.w3.org/2000/svg">
<rect width="34" height="34" rx="10" fill="#2196F3"/>
<mask id="mask0_19_420" style="mask-type:alpha" maskUnits="userSpaceOnUse" x="0" y="0" width="34" height="34">
<rect width="34" height="34" rx="10" fill="#0C7FDA"/>
</mask>
<g mask="url(#mask0_19_420)">
<path d="M20.0933 36.072L5.42187 10.8873L13.5719 6.13944C13.7702 6.02397 14.1816 5.79207 14.8064 5.44373C15.4311 5.0954 16.0496 4.7898 16.6616 4.52693C18.833 3.58993 20.9638 3.29347 23.0538 3.63756C25.1439 3.98165 27.0792 4.83753 28.8597 6.20519C30.6403 7.57286 32.1521 9.32354 33.3951 11.4573C34.6381 13.591 35.4153 15.7696 35.7268 17.9931C36.0382 20.2166 35.8282 22.3222 35.0966 24.3101C34.365 26.2979 33.0561 28.0052 31.17 29.4319C30.6394 29.8346 30.0686 30.2219 29.4574 30.5935C28.8462 30.9652 28.4415 31.2087 28.2433 31.3242L20.0933 36.072ZM22.3121 28.7827L25.6351 26.8469C25.9499 26.6635 26.3721 26.4098 26.9016 26.0857C27.4244 25.7499 27.8777 25.4155 28.2615 25.0826C29.2285 24.2226 29.8216 23.19 30.0408 21.9847C30.2718 20.7727 30.221 19.506 29.8886 18.1849C29.5679 16.8569 29.0577 15.5925 28.3581 14.3915C27.6246 13.1323 26.7535 12.0391 25.7448 11.1119C24.7478 10.1778 23.672 9.52402 22.5173 9.15036C21.3627 8.77671 20.1937 8.79399 19.0104 9.20222C18.5247 9.36026 18.0102 9.58967 17.4671 9.89046C16.924 10.1912 16.495 10.4333 16.1802 10.6167L12.8572 12.5525L22.3121 28.7827Z" fill="white"/>
</g>
</svg>
